<svg width="10" height="16" viewBox="0 0 10 16" fill="none" xmlns="http://www.w3.org/2000/svg">
<path d="M1.36328 8.72718C1.36328 7.76276 1.7464 6.83784 2.42835 6.15589C3.1103 5.47394 4.03522 5.09082 4.99964 5.09082C5.96407 5.09082 6.88899 5.47394 7.57094 6.15589C8.25289 6.83784 8.63601 7.76276 8.63601 8.72718V12.3635C8.63601 13.7352 8.63601 14.4203 8.20983 14.8465C7.78364 15.2726 7.09855 15.2726 5.72692 15.2726H4.27237C2.90074 15.2726 2.21564 15.2726 1.78946 14.8465C1.36328 14.4203 1.36328 13.7352 1.36328 12.3635V8.72718Z" stroke="white" stroke-width="1.2" stroke-linecap="round" stroke-linejoin="round"/>
<path d="M3.5451 5.09093V4.36366C3.5451 3.67784 3.5451 3.3353 3.75819 3.1222C3.97128 2.90911 4.31383 2.90911 4.99964 2.90911M4.99964 2.90911C5.68546 2.90911 6.02801 2.90911 6.2411 3.1222C6.45419 3.3353 6.45419 3.67784 6.45419 4.36366V5.09093M4.99964 2.90911V0.727295M4.99964 0.727295H3.5451M4.99964 0.727295H6.99601C7.54667 0.727435 8.07692 0.935792 8.48037 1.31057L8.63601 1.45457M1.36328 8.7273H8.63601" stroke="white" stroke-width="1.2" stroke-linecap="round" stroke-linejoin="round"/>
<rect x="1" y="9" width="8" height="6" rx="1" fill="white"/>
</svg>
